<svg width="14" height="15" viewBox="0 0 14 15" fill="none" xmlns="http://www.w3.org/2000/svg">
<path fill-rule="evenodd" clip-rule="evenodd" d="M7.99998 2H5.99998C5.86737 2 5.74019 2.05268 5.64642 2.14645C5.55266 2.24021 5.49998 2.36739 5.49998 2.5V3H8.49998V2.5C8.49998 2.36739 8.4473 2.24021 8.35353 2.14645C8.25976 2.05268 8.13259 2 7.99998 2ZM9.99998 3V2.5C9.99998 1.96957 9.78926 1.46086 9.41419 1.08579C9.03912 0.710714 8.53041 0.5 7.99998 0.5H5.99998C5.46954 0.5 4.96084 0.710714 4.58576 1.08579C4.21069 1.46086 3.99998 1.96957 3.99998 2.5V3H1.25098C1.05206 3 0.861299 3.07902 0.720646 3.21967C0.579994 3.36032 0.500977 3.55109 0.500977 3.75C0.500977 3.94891 0.579994 4.13968 0.720646 4.28033C0.861299 4.42098 1.05206 4.5 1.25098 4.5H1.56298L1.87998 12.125C1.91223 12.8984 2.24221 13.6295 2.80093 14.1653C3.35966 14.7011 4.10386 15.0002 4.87798 15H9.12298C9.89692 14.9999 10.6409 14.7007 11.1994 14.1649C11.7579 13.6292 12.0877 12.8983 12.12 12.125L12.438 4.5H12.75C12.9489 4.5 13.1397 4.42098 13.2803 4.28033C13.421 4.13968 13.5 3.94891 13.5 3.75C13.5 3.55109 13.421 3.36032 13.2803 3.21967C13.1397 3.07902 12.9489 3 12.75 3H9.99998ZM10.936 4.5H3.06398L3.37898 12.062C3.39498 12.4488 3.55991 12.8145 3.83929 13.0825C4.11866 13.3505 4.49084 13.5001 4.87798 13.5H9.12298C9.50994 13.4998 9.88187 13.3501 10.161 13.0821C10.4402 12.8141 10.605 12.4486 10.621 12.062L10.936 4.5ZM4.74998 6.5V11.5C4.74998 11.6989 4.82899 11.8897 4.96965 12.0303C5.1103 12.171 5.30106 12.25 5.49998 12.25C5.69889 12.25 5.88965 12.171 6.03031 12.0303C6.17096 11.8897 6.24998 11.6989 6.24998 11.5V6.5C6.24998 6.30109 6.17096 6.11032 6.03031 5.96967C5.88965 5.82902 5.69889 5.75 5.49998 5.75C5.30106 5.75 5.1103 5.82902 4.96965 5.96967C4.82899 6.11032 4.74998 6.30109 4.74998 6.5ZM8.49998 5.75C8.69889 5.75 8.88965 5.82902 9.03031 5.96967C9.17096 6.11032 9.24998 6.30109 9.24998 6.5V11.5C9.24998 11.6989 9.17096 11.8897 9.03031 12.0303C8.88965 12.171 8.69889 12.25 8.49998 12.25C8.30106 12.25 8.1103 12.171 7.96965 12.0303C7.82899 11.8897 7.74998 11.6989 7.74998 11.5V6.5C7.74998 6.30109 7.82899 6.11032 7.96965 5.96967C8.1103 5.82902 8.30106 5.75 8.49998 5.75Z" fill="white"/>
</svg>
