<svg width="20" height="20" viewBox="0 0 20 20" fill="none" xmlns="http://www.w3.org/2000/svg">
<path d="M9.91094 0.704601C14.8609 0.693663 17.9844 8.74522 16.7516 13.8483C15.6609 18.3671 12.5281 19.303 10.0203 19.303C7.51251 19.303 4.46719 18.0874 3.28907 14.0233C1.92657 9.3171 5.29219 0.715538 9.91094 0.704601Z" fill="#F2A05B"/>
<path d="M6.13438 4.536C5.54063 5.48444 4.94219 6.67819 4.81407 7.6735C4.57969 9.50631 5.92813 9.71256 6.39844 8.80319C6.86875 7.89381 7.35 6.9735 8.11407 5.75319C9.17032 4.06725 10.9 2.93756 10.05 2.20475C9.2 1.47194 7.38125 2.54225 6.13438 4.536Z" fill="#FECC88"/>
<path d="M14.2812 7.1313C14.4556 7.1313 14.5969 6.98719 14.5969 6.80942C14.5969 6.63166 14.4556 6.48755 14.2812 6.48755C14.1069 6.48755 13.9656 6.63166 13.9656 6.80942C13.9656 6.98719 14.1069 7.1313 14.2812 7.1313Z" fill="#D47858"/>
<path d="M14.6362 14.826C14.7081 14.6512 14.6253 14.4515 14.4513 14.3799C14.2773 14.3084 14.078 14.3921 14.0061 14.5668C13.9343 14.7416 14.017 14.9413 14.191 15.0129C14.365 15.0844 14.5643 15.0008 14.6362 14.826Z" fill="#D47858"/>
<path d="M5.43655 16.1955C5.50351 16.0327 5.42582 15.8464 5.26301 15.7795C5.1002 15.7125 4.91394 15.7902 4.84697 15.953C4.78001 16.1158 4.8577 16.3021 5.02051 16.3691C5.18332 16.436 5.36959 16.3583 5.43655 16.1955Z" fill="#D47858"/>
<path d="M15.4521 10.1503C15.6873 10.0284 15.7911 9.76187 15.6839 9.555C15.5767 9.34813 15.2991 9.27924 15.0639 9.40113C14.8287 9.52302 14.7249 9.78953 14.8321 9.9964C14.9393 10.2033 15.2169 10.2722 15.4521 10.1503Z" fill="#D47858"/>
<path d="M10.9006 14.3444C11.1358 14.2225 11.2396 13.956 11.1324 13.7491C11.0252 13.5422 10.7476 13.4733 10.5124 13.5952C10.2772 13.7171 10.1734 13.9836 10.2806 14.1905C10.3878 14.3974 10.6654 14.4662 10.9006 14.3444Z" fill="#D47858"/>
<path d="M10.4536 16.5639C10.6274 16.346 10.6206 16.0515 10.4385 15.9063C10.2563 15.761 9.96774 15.8199 9.79395 16.0378C9.62016 16.2557 9.62695 16.5501 9.80911 16.6954C9.99127 16.8407 10.2798 16.7818 10.4536 16.5639Z" fill="#D47858"/>
<path d="M8.58997 17.0803C8.79526 16.8494 8.7808 16.5014 8.55768 16.303C8.33455 16.1046 7.98725 16.1309 7.78197 16.3618C7.57668 16.5926 7.59114 16.9406 7.81427 17.139C8.03739 17.3374 8.38469 17.3111 8.58997 17.0803Z" fill="#D47858"/>
</svg>
