<svg width="25" height="25" viewBox="0 0 25 25" fill="none" xmlns="http://www.w3.org/2000/svg">
<path d="M15.5 20.38C15.54 20.68 15.44 21 15.21 21.21C15.1175 21.3027 15.0076 21.3762 14.8866 21.4264C14.7657 21.4766 14.636 21.5024 14.505 21.5024C14.374 21.5024 14.2444 21.4766 14.1234 21.4264C14.0024 21.3762 13.8925 21.3027 13.8 21.21L9.79001 17.2C9.68101 17.0933 9.59812 16.9629 9.54782 16.819C9.49751 16.675 9.48115 16.5213 9.50001 16.37V11.25L4.71001 5.12C4.54762 4.91153 4.47434 4.64726 4.5062 4.38493C4.53805 4.1226 4.67244 3.88355 4.88001 3.72C5.07001 3.58 5.28001 3.5 5.50001 3.5H19.5C19.72 3.5 19.93 3.58 20.12 3.72C20.3276 3.88355 20.462 4.1226 20.4938 4.38493C20.5257 4.64726 20.4524 4.91153 20.29 5.12L15.5 11.25V20.38ZM7.54001 5.5L11.5 10.56V16.08L13.5 18.08V10.55L17.46 5.5H7.54001Z" fill="white"/>
</svg>
