<svg width="16" height="17" viewBox="0 0 16 17" fill="none" xmlns="http://www.w3.org/2000/svg">
<path d="M12.6667 2.5L9.33335 5.83333M12.6667 2.5H10M12.6667 2.5V5.16667M7.33335 11.1667V15.1667M5.33335 13.1667H9.33335M4.66669 7.83333C4.66669 8.54058 4.94764 9.21885 5.44774 9.71895C5.94783 10.219 6.62611 10.5 7.33335 10.5C8.0406 10.5 8.71888 10.219 9.21897 9.71895C9.71907 9.21885 10 8.54058 10 7.83333C10 7.12609 9.71907 6.44781 9.21897 5.94772C8.71888 5.44762 8.0406 5.16667 7.33335 5.16667C6.62611 5.16667 5.94783 5.44762 5.44774 5.94772C4.94764 6.44781 4.66669 7.12609 4.66669 7.83333Z" stroke="#667085" stroke-linecap="round" stroke-linejoin="round"/>
</svg>
