<svg width="16" height="17" viewBox="0 0 16 17" fill="none" xmlns="http://www.w3.org/2000/svg">
<path d="M7.33335 5.16667H11.3334M4.66669 5.16667H5.33335M4.66669 8.5H5.33335M4.66669 11.8333H5.33335M7.33335 8.5H11.3334M7.33335 11.8333H11.3334M1.66669 8.5C1.66669 5.51467 1.66669 4.02133 2.59402 3.094C3.52135 2.16667 5.01402 2.16667 8.00002 2.16667C10.9854 2.16667 12.4787 2.16667 13.406 3.094C14.3334 4.02133 14.3334 5.514 14.3334 8.5C14.3334 11.4853 14.3334 12.9787 13.406 13.906C12.4787 14.8333 10.986 14.8333 8.00002 14.8333C5.01469 14.8333 3.52135 14.8333 2.59402 13.906C1.66669 12.9787 1.66669 11.486 1.66669 8.5Z" stroke="#667085" stroke-width="1.5" stroke-linecap="round" stroke-linejoin="round"/>
</svg>
