<svg width="24" height="25" viewBox="0 0 24 25" fill="none" xmlns="http://www.w3.org/2000/svg">
<path opacity="0.5" d="M4 22.5H20" stroke="#EB5757" stroke-width="1.5" stroke-linecap="round"/>
<path d="M14.6296 3.42142L13.8881 4.16293L7.07106 10.9799C6.60933 11.4416 6.37846 11.6725 6.17992 11.9271C5.94571 12.2273 5.74491 12.5522 5.58107 12.896C5.44219 13.1874 5.33894 13.4972 5.13245 14.1167L4.25745 16.7417L4.04356 17.3833C3.94194 17.6882 4.02128 18.0243 4.2485 18.2515C4.47573 18.4787 4.81182 18.5581 5.11667 18.4564L5.75834 18.2426L8.38334 17.3675L8.3834 17.3675C9.00284 17.1611 9.31256 17.0578 9.60398 16.9189C9.94775 16.7551 10.2727 16.5543 10.5729 16.3201C10.8275 16.1215 11.0583 15.8907 11.5201 15.429L11.5201 15.4289L18.3371 8.61195L19.0786 7.87044C20.3071 6.64188 20.3071 4.64999 19.0786 3.42142C17.85 2.19286 15.8581 2.19286 14.6296 3.42142Z" stroke="#EB5757" stroke-width="1.5"/>
<path opacity="0.5" d="M13.8879 4.16309C13.8879 4.16309 13.9806 5.73878 15.3709 7.1291C16.7613 8.51942 18.337 8.61211 18.337 8.61211M5.75821 18.2427L4.25732 16.7418" stroke="#EB5757" stroke-width="1.5"/>
</svg>
