<svg width="42" height="19" viewBox="0 0 42 19" fill="none" xmlns="http://www.w3.org/2000/svg">
<path d="M28.6108 17.8313V15.9774C28.6108 14.994 28.2202 14.0509 27.5248 13.3555C26.8294 12.6602 25.8863 12.2695 24.9029 12.2695H17.4872C16.5038 12.2695 15.5607 12.6602 14.8653 13.3555C14.1699 14.0509 13.7793 14.994 13.7793 15.9774V17.8313" stroke="#BC0202" stroke-width="1.62218" stroke-linecap="round" stroke-linejoin="round"/>
<path d="M40.6613 17.8316V16.2867C40.6613 15.4672 40.3358 14.6813 39.7563 14.1018C39.1768 13.5223 38.3909 13.1968 37.5714 13.1968H31.3916" stroke="#BC0202" stroke-width="1.62218" stroke-linecap="round" stroke-linejoin="round"/>
<path d="M1.72835 17.8316V16.2867C1.72835 15.4672 2.0539 14.6813 2.63336 14.1018C3.21283 13.5223 3.99876 13.1968 4.81825 13.1968H10.998" stroke="#BC0202" stroke-width="1.62218" stroke-linecap="round" stroke-linejoin="round"/>
<path d="M21.1952 8.56175C23.243 8.56175 24.9031 6.90168 24.9031 4.85387C24.9031 2.80607 23.243 1.146 21.1952 1.146C19.1474 1.146 17.4873 2.80607 17.4873 4.85387C17.4873 6.90168 19.1474 8.56175 21.1952 8.56175Z" stroke="#BC0202" stroke-width="1.62218" stroke-linecap="round" stroke-linejoin="round"/>
<path d="M34.636 10.416C36.4278 10.416 37.8804 8.96347 37.8804 7.17164C37.8804 5.37981 36.4278 3.92725 34.636 3.92725C32.8442 3.92725 31.3916 5.37981 31.3916 7.17164C31.3916 8.96347 32.8442 10.416 34.636 10.416Z" stroke="#BC0202" stroke-width="1.62218" stroke-linecap="round" stroke-linejoin="round"/>
<path d="M7.75365 10.416C5.96183 10.416 4.50926 8.96347 4.50926 7.17164C4.50926 5.37981 5.96183 3.92725 7.75365 3.92725C9.54548 3.92725 10.998 5.37981 10.998 7.17164C10.998 8.96347 9.54548 10.416 7.75365 10.416Z" stroke="#BC0202" stroke-width="1.62218" stroke-linecap="round" stroke-linejoin="round"/>
</svg>
