<svg width="41" height="35" viewBox="0 0 41 35" fill="none" xmlns="http://www.w3.org/2000/svg">
<path d="M27.4972 33.7593V32.0498C27.4972 31.1431 27.137 30.2734 26.4958 29.6323C25.8546 28.9911 24.985 28.6309 24.0782 28.6309H17.2403C16.3335 28.6309 15.4639 28.9911 14.8227 29.6323C14.1815 30.2734 13.8213 31.1431 13.8213 32.0498V33.7593" stroke="#BC0202" stroke-width="1.29774" stroke-linecap="round" stroke-linejoin="round"/>
<path d="M27.4972 16.6646V14.9551C27.4972 14.0483 27.137 13.1787 26.4958 12.5375C25.8546 11.8963 24.985 11.5361 24.0782 11.5361H17.2403C16.3335 11.5361 15.4639 11.8963 14.8227 12.5375C14.1815 13.1787 13.8213 14.0483 13.8213 14.9551V16.6646" stroke="#BC0202" stroke-width="1.29774" stroke-linecap="round" stroke-linejoin="round"/>
<path d="M40.3179 23.5027V22.0781C40.3179 21.3225 40.0178 20.5978 39.4834 20.0635C38.9491 19.5292 38.2244 19.229 37.4688 19.229H31.7705" stroke="#BC0202" stroke-width="1.29774" stroke-linecap="round" stroke-linejoin="round"/>
<path d="M0.999926 23.5027V22.0781C0.999926 21.3225 1.3001 20.5978 1.83442 20.0635C2.36874 19.5292 3.09343 19.229 3.84907 19.229H9.54736" stroke="#BC0202" stroke-width="1.29774" stroke-linecap="round" stroke-linejoin="round"/>
<path d="M20.6592 25.212C22.5475 25.212 24.0782 23.6812 24.0782 21.793C24.0782 19.9048 22.5475 18.374 20.6592 18.374C18.771 18.374 17.2402 19.9048 17.2402 21.793C17.2402 23.6812 18.771 25.212 20.6592 25.212Z" stroke="#BC0202" stroke-width="1.29774" stroke-linecap="round" stroke-linejoin="round"/>
<path d="M20.6592 8.11725C22.5475 8.11725 24.0782 6.58652 24.0782 4.69827C24.0782 2.81002 22.5475 1.2793 20.6592 1.2793C18.771 1.2793 17.2402 2.81002 17.2402 4.69827C17.2402 6.58652 18.771 8.11725 20.6592 8.11725Z" stroke="#BC0202" stroke-width="1.29774" stroke-linecap="round" stroke-linejoin="round"/>
<path d="M34.7621 16.6648C36.4143 16.6648 37.7537 15.3255 37.7537 13.6732C37.7537 12.021 36.4143 10.6816 34.7621 10.6816C33.1099 10.6816 31.7705 12.021 31.7705 13.6732C31.7705 15.3255 33.1099 16.6648 34.7621 16.6648Z" stroke="#BC0202" stroke-width="1.29774" stroke-linecap="round" stroke-linejoin="round"/>
<path d="M6.55576 16.6648C4.90354 16.6648 3.56416 15.3255 3.56416 13.6732C3.56416 12.021 4.90354 10.6816 6.55576 10.6816C8.20798 10.6816 9.54736 12.021 9.54736 13.6732C9.54736 15.3255 8.20798 16.6648 6.55576 16.6648Z" stroke="#BC0202" stroke-width="1.29774" stroke-linecap="round" stroke-linejoin="round"/>
</svg>
