<svg width="29" height="19" viewBox="0 0 29 19" fill="none" xmlns="http://www.w3.org/2000/svg">
<path d="M16.2111 17.7454V15.9107C16.2111 14.9375 15.8245 14.0041 15.1363 13.316C14.4482 12.6278 13.5148 12.2412 12.5416 12.2412H5.20268C4.22947 12.2412 3.29613 12.6278 2.60797 13.316C1.91981 14.0041 1.5332 14.9375 1.5332 15.9107V17.7454" stroke="#BC0202" stroke-width="1.62218" stroke-linecap="round" stroke-linejoin="round"/>
<path d="M28.1371 17.7451V16.2161C28.1371 15.4051 27.8149 14.6273 27.2414 14.0538C26.668 13.4804 25.8902 13.1582 25.0792 13.1582H18.9634" stroke="#BC0202" stroke-width="1.62218" stroke-linecap="round" stroke-linejoin="round"/>
<path d="M8.87163 8.57138C10.8982 8.57138 12.5411 6.9285 12.5411 4.9019C12.5411 2.8753 10.8982 1.23242 8.87163 1.23242C6.84503 1.23242 5.20215 2.8753 5.20215 4.9019C5.20215 6.9285 6.84503 8.57138 8.87163 8.57138Z" stroke="#BC0202" stroke-width="1.62218" stroke-linecap="round" stroke-linejoin="round"/>
<path d="M22.1742 10.406C23.9474 10.406 25.385 8.96844 25.385 7.19517C25.385 5.4219 23.9474 3.98438 22.1742 3.98438C20.4009 3.98438 18.9634 5.4219 18.9634 7.19517C18.9634 8.96844 20.4009 10.406 22.1742 10.406Z" stroke="#BC0202" stroke-width="1.62218" stroke-linecap="round" stroke-linejoin="round"/>
</svg>
