<svg width="17" height="16" viewBox="0 0 17 16" fill="none" xmlns="http://www.w3.org/2000/svg">
<path d="M7.95242 0.68527C8.12478 0.154818 8.87522 0.15482 9.04758 0.685272L10.5036 5.1665C10.5807 5.40373 10.8018 5.56434 11.0512 5.56434H15.763C16.3208 5.56434 16.5527 6.27806 16.1015 6.60589L12.2895 9.37545C12.0877 9.52206 12.0033 9.78194 12.0803 10.0192L13.5364 14.5004C13.7087 15.0308 13.1016 15.4719 12.6504 15.1441L8.83842 12.3746C8.63663 12.2279 8.36337 12.2279 8.16158 12.3746L4.34962 15.1441C3.89839 15.4719 3.29126 15.0308 3.46362 14.5004L4.91966 10.0192C4.99674 9.78194 4.9123 9.52206 4.7105 9.37544L0.898539 6.60589C0.44731 6.27806 0.679213 5.56434 1.23696 5.56434H5.9488C6.19824 5.56434 6.4193 5.40373 6.49638 5.1665L7.95242 0.68527Z" fill="#FFFBFB"/>
</svg>
