<svg width="20" height="20" viewBox="0 0 20 20" fill="none" xmlns="http://www.w3.org/2000/svg">
<path d="M9.1 2.39C9.19171 2.23263 9.32307 2.10206 9.48099 2.01131C9.63891 1.92056 9.81786 1.8728 10 1.8728C10.1821 1.8728 10.3611 1.92056 10.519 2.01131C10.6769 2.10206 10.8083 2.23263 10.9 2.39L13.2292 6.38833L17.7525 7.36833C17.9304 7.407 18.0951 7.49162 18.2301 7.61378C18.3652 7.73593 18.4658 7.89134 18.522 8.06452C18.5783 8.2377 18.5881 8.42259 18.5506 8.60077C18.5131 8.77894 18.4296 8.94418 18.3083 9.08L15.225 12.5308L15.6917 17.135C15.7101 17.3163 15.6806 17.4992 15.6062 17.6656C15.5318 17.8319 15.415 17.9758 15.2676 18.083C15.1202 18.1901 14.9472 18.2566 14.766 18.276C14.5848 18.2954 14.4017 18.2669 14.235 18.1933L10 16.3267L5.765 18.1933C5.59827 18.2669 5.41516 18.2954 5.23396 18.276C5.05277 18.2566 4.87982 18.1901 4.7324 18.083C4.58497 17.9758 4.46822 17.8319 4.39381 17.6656C4.3194 17.4992 4.28993 17.3163 4.30834 17.135L4.775 12.5308L1.69167 9.08083C1.57019 8.94502 1.48647 8.77972 1.44885 8.60143C1.41123 8.42314 1.42104 8.23811 1.47729 8.06479C1.53354 7.89148 1.63427 7.73596 1.76942 7.61375C1.90458 7.49154 2.06942 7.40692 2.2475 7.36833L6.77084 6.38833L9.1 2.39Z" fill="#F9A743"/>
</svg>
