<svg width="72" height="68" viewBox="0 0 72 68" fill="none" xmlns="http://www.w3.org/2000/svg">
<rect xmlns="http://www.w3.org/2000/svg" x="0.5" y="0.5" width="71" height="67" rx="5.5" fill="white"/>
<rect xmlns="http://www.w3.org/2000/svg" x="0.5" y="0.5" width="71" height="67" rx="5.5" stroke="#EBE9F1"/>
<g clip-path="url(#clip0_1211_3645)">
<path d="M54 34C54 24.0589 45.9411 16 36 16C26.0589 16 18 24.0588 18 34C18 42.9842 24.5824 50.431 33.1875 51.7813V39.2031H28.6172V34H33.1875V30.0344C33.1875 25.5231 35.8748 23.0312 39.9863 23.0312C41.9557 23.0312 44.0156 23.3828 44.0156 23.3828V27.8125H41.7459C39.5097 27.8125 38.8125 29.2 38.8125 30.6236V34H43.8047L43.0066 39.2031H38.8125V51.7813C47.4176 50.431 54 42.9844 54 34Z" fill="#1877F2"/>
<path d="M43.0066 39.2031L43.8047 34H38.8125V30.6236C38.8125 29.1999 39.5099 27.8125 41.7459 27.8125H44.0156V23.3828C44.0156 23.3828 41.9558 23.0312 39.9863 23.0312C35.8748 23.0312 33.1875 25.5231 33.1875 30.0344V34H28.6172V39.2031H33.1875V51.7813C34.1179 51.9271 35.0582 52.0002 36 52C36.9418 52.0003 37.8821 51.9272 38.8125 51.7813V39.2031H43.0066Z" fill="white"/>
</g>
<defs>
<clipPath id="clip0_1211_3645">
<rect width="36" height="36" fill="white" transform="translate(18 16)"/>
</clipPath>
</defs>
</svg>
