<svg width="72" height="68" viewBox="0 0 72 68" fill="none" xmlns="http://www.w3.org/2000/svg">
<rect xmlns="http://www.w3.org/2000/svg" x="0.5" y="0.5" width="71" height="67" rx="5.5" fill="white"/>
<rect xmlns="http://www.w3.org/2000/svg" x="0.5" y="0.5" width="71" height="67" rx="5.5" stroke="#EBE9F1"/>
<g clip-path="url(#clip0_1211_3643)">
<path d="M53.6175 34.405C53.6175 33.22 53.5125 32.095 53.3325 31H36.3825V37.765H46.0875C45.6525 39.985 44.3775 41.86 42.4875 43.135V47.635H48.2775C51.6675 44.5 53.6175 39.88 53.6175 34.405Z" fill="#4285F4"/>
<path d="M36.3825 52.0001C41.2425 52.0001 45.3075 50.3801 48.2775 47.6351L42.4875 43.1351C40.8675 44.2151 38.8125 44.8751 36.3825 44.8751C31.6875 44.8751 27.7125 41.7101 26.2875 37.4351H20.3175V42.0701C23.2725 47.9501 29.3475 52.0001 36.3825 52.0001Z" fill="#34A853"/>
<path d="M26.2875 37.4352C25.9125 36.3552 25.7175 35.2002 25.7175 34.0002C25.7175 32.8002 25.9275 31.6452 26.2875 30.5652V25.9302H20.3175C19.0875 28.3602 18.3825 31.0902 18.3825 34.0002C18.3825 36.9102 19.0875 39.6402 20.3175 42.0702L26.2875 37.4352Z" fill="#FBBC05"/>
<path d="M36.3825 23.125C39.0375 23.125 41.4075 24.04 43.2825 25.825L48.4125 20.695C45.3075 17.785 41.2425 16 36.3825 16C29.3475 16 23.2725 20.05 20.3175 25.93L26.2875 30.565C27.7125 26.29 31.6875 23.125 36.3825 23.125Z" fill="#EA4335"/>
</g>
<defs>
<clipPath id="clip0_1211_3643">
<rect width="36" height="36" fill="white" transform="translate(18 16)"/>
</clipPath>
</defs>
</svg>
