<svg width="148" height="45" viewBox="0 0 148 45" fill="none" xmlns="http://www.w3.org/2000/svg">
<path d="M56.8703 39.8109C63.6905 39.8109 68.4488 36.3744 69.559 30.6645H63.5847C62.8446 33.1493 60.5183 34.524 56.976 34.524C52.6936 34.524 50.2616 32.1977 49.7857 27.598L69.4533 27.5452V25.589C69.4533 17.447 64.4835 12.2129 56.6588 12.2129C48.9927 12.2129 43.6528 17.87 43.6528 26.0648C43.6528 34.1539 49.0984 39.8109 56.8703 39.8109ZM56.7117 17.4999C60.5712 17.4999 63.056 19.879 63.056 23.4742H49.9443C50.5788 19.5618 52.905 17.4999 56.7117 17.4999Z" fill="#F8951D"/>
<path d="M82.1292 39.8109C86.2002 39.8109 89.7425 37.9605 90.8527 35.2641L91.3286 39.1236H96.9856V23.2627C96.9856 16.0195 92.6503 12.2129 85.6186 12.2129C78.5341 12.2129 73.8815 15.9138 73.8815 21.5709H79.38C79.38 18.8216 81.4948 17.2355 85.3014 17.2355C88.5793 17.2355 90.6941 18.663 90.6941 22.2053V22.7869L82.8694 23.3684C76.6836 23.8443 73.1942 26.8578 73.1942 31.669C73.1942 36.5859 76.5779 39.8109 82.1292 39.8109ZM84.244 34.9469C81.3362 34.9469 79.7501 33.7838 79.7501 31.4046C79.7501 29.2899 81.2833 27.9681 85.3014 27.598L90.747 27.1751V28.5497C90.747 32.5678 88.2093 34.9469 84.244 34.9469Z" fill="#F8951D"/>
<path d="M111.843 39.1236V18.3987H116.918V13.006H111.843V4.86402H105.393V13.006H100.37V18.3987H105.393V39.1236H111.843Z" fill="#F8951D"/>
<path d="M124.153 7.77185C126.268 7.77185 128.013 6.02715 128.013 3.85949C128.013 1.69183 126.268 0 124.153 0C121.933 0 120.188 1.69183 120.188 3.85949C120.188 6.02715 121.933 7.77185 124.153 7.77185ZM120.928 39.1236H127.378V13.006H120.928V39.1236Z" fill="#F8951D"/>
<path d="M142.925 39.1236V18.3987H148V13.006H142.925V4.86402H136.474V13.006H131.452V18.3987H136.474V39.1236H142.925Z" fill="#F8951D"/>
<path d="M13.0004 10.268C13.6313 12.6603 15.1094 14.3888 16.922 16.3498C18.8931 18.4813 20.8172 20.6376 20.6766 23.719C20.6863 23.9314 20.6859 24.1391 20.6766 24.3426V30.1481C20.8982 31.5727 19.4256 30.4329 18.2242 31.9335C17.5897 32.7249 16.3969 32.628 15.1962 33.0593C14.1952 34.3123 13.4135 35.5978 13 37.1701H28.6318C28.1593 35.3777 27.211 33.9581 26.0026 32.5338C24.9822 32.664 24.0335 33.3229 23.4785 32.6303C22.2771 31.1297 20.7335 31.5743 20.9568 30.15V24.3643C20.9463 24.1539 20.9455 23.938 20.9568 23.719C20.8161 20.6376 22.7395 18.4821 24.7117 16.3498C25.3473 15.6615 25.9422 15.0023 26.4735 14.3346C20.9757 14.4287 21.8563 9.66575 13.0004 10.268Z" fill="#F8951D"/>
<path d="M10.8517 8.3167C11.0842 12.7871 13.5382 15.4418 15.6015 17.6741C17.4288 19.6506 18.9852 21.3356 18.8352 23.7198C18.9852 26.1036 17.4288 27.7891 15.6015 29.7656C13.5382 31.9982 11.085 34.6529 10.8517 39.1229H31.0061C30.7736 34.6529 28.3196 31.9982 26.256 29.7656C24.4287 27.7891 22.8723 26.1044 23.0226 23.7198C22.8723 21.3364 24.4287 19.6506 26.256 17.6741C28.3196 15.4418 30.7724 12.7871 31.0061 8.3167H10.8517ZM14.3784 18.8045C11.9965 16.2281 9.14026 13.1374 9.16545 7.54897V7.47378L9.17242 6.64404H32.6834L32.6904 7.47378V7.54897C32.716 13.1374 29.8613 16.2301 27.4779 18.8045C25.9037 20.5074 24.5651 21.9561 24.6926 23.657V23.783C24.5651 25.4843 25.9037 26.9326 27.4779 28.6359C29.8594 31.2104 32.7148 34.3007 32.6904 39.8895V39.9643L32.6834 40.794H9.17397L9.167 39.9643V39.8895C9.14181 34.3007 11.998 31.2084 14.3799 28.6339C15.9537 26.9307 17.2927 25.4824 17.1648 23.781V23.657C17.2927 21.9561 15.9537 20.5074 14.3799 18.8045H14.3784Z" fill="#F8951D"/>
<path fill-rule="evenodd" clip-rule="evenodd" d="M8.71981 5.14014H33.1377C33.5588 5.14126 33.9623 5.30903 34.26 5.60677C34.5577 5.90451 34.7255 6.30802 34.7266 6.72909C34.7256 7.15019 34.5579 7.55375 34.2601 7.85151C33.9624 8.14928 33.5588 8.31701 33.1377 8.31803H8.71981C8.29874 8.31691 7.89524 8.14914 7.59749 7.8514C7.29975 7.55366 7.13198 7.15016 7.13086 6.72909C7.13209 6.30805 7.29989 5.9046 7.59761 5.60688C7.89533 5.30916 8.29877 5.14136 8.71981 5.14014Z" fill="#F8951D"/>
<path fill-rule="evenodd" clip-rule="evenodd" d="M8.71981 39.1216H33.1377C33.5588 39.1227 33.9623 39.2905 34.26 39.5882C34.5577 39.886 34.7255 40.2895 34.7266 40.7105C34.7256 41.1316 34.5579 41.5352 34.2601 41.833C33.9624 42.1307 33.5588 42.2985 33.1377 42.2995H8.71981C8.29874 42.2984 7.89524 42.1306 7.59749 41.8328C7.29975 41.5351 7.13198 41.1316 7.13086 40.7105C7.13209 40.2895 7.29989 39.886 7.59761 39.5883C7.89533 39.2906 8.29877 39.1228 8.71981 39.1216Z" fill="#F8951D"/>
</svg>
