<svg width="49" height="49" viewBox="0 0 49 49" fill="none" xmlns="http://www.w3.org/2000/svg">
<path fill-rule="evenodd" clip-rule="evenodd" d="M3.30646 24.4998C3.30646 18.8789 5.53935 13.4882 9.51392 9.51361C13.4885 5.53904 18.8792 3.30615 24.5001 3.30615C30.1209 3.30615 35.5116 5.53904 39.4862 9.51361C43.4608 13.4882 45.6937 18.8789 45.6937 24.4998C45.6937 30.1206 43.4608 35.5113 39.4862 39.4859C35.5116 43.4605 30.1209 45.6934 24.5001 45.6934C18.8792 45.6934 13.4885 43.4605 9.51392 39.4859C5.53935 35.5113 3.30646 30.1206 3.30646 24.4998ZM24.5001 6.34615C20.9814 6.34627 17.5386 7.36898 14.5905 9.28985C11.6424 11.2107 9.31606 13.947 7.89452 17.1657C6.47298 20.3844 6.01749 23.9469 6.58346 27.4198C7.14944 30.8926 8.71249 34.1261 11.0825 36.727C12.5213 34.4733 14.5049 32.6187 16.8501 31.3346C19.1953 30.0504 21.8263 29.3781 24.5001 29.3797C27.1739 29.3778 29.805 30.05 32.1502 31.3342C34.4955 32.6184 36.4791 34.4731 37.9177 36.727C40.2876 34.1261 41.8507 30.8926 42.4167 27.4198C42.9826 23.9469 42.5271 20.3844 41.1056 17.1657C39.684 13.947 37.3577 11.2107 34.4096 9.28985C31.4615 7.36898 28.0187 6.34627 24.5001 6.34615ZM35.6425 38.8326C34.5101 36.8809 32.8846 35.2612 30.9291 34.1357C28.9735 33.0102 26.7564 32.4185 24.5001 32.4198C22.2437 32.4185 20.0267 33.0102 18.0711 34.1357C16.1155 35.2612 14.49 36.8809 13.3577 38.8326C16.5409 41.3147 20.4635 42.6598 24.5001 42.6534C28.6985 42.6534 32.5641 41.2262 35.6425 38.8326ZM16.9801 21.3158C16.9801 19.3213 17.7723 17.4086 19.1826 15.9983C20.5929 14.588 22.5056 13.7958 24.5001 13.7958C26.4945 13.7958 28.4072 14.588 29.8175 15.9983C31.2278 17.4086 32.0201 19.3213 32.0201 21.3158C32.0201 23.3102 31.2278 25.2229 29.8175 26.6332C28.4072 28.0435 26.4945 28.8358 24.5001 28.8358C22.5056 28.8358 20.5929 28.0435 19.1826 26.6332C17.7723 25.2229 16.9801 23.3102 16.9801 21.3158ZM24.5001 16.8358C23.9117 16.8358 23.3292 16.9516 22.7856 17.1768C22.2421 17.4019 21.7482 17.7319 21.3322 18.1479C20.9162 18.5639 20.5862 19.0578 20.3611 19.6013C20.1359 20.1449 20.0201 20.7274 20.0201 21.3158C20.0201 21.9041 20.1359 22.4866 20.3611 23.0302C20.5862 23.5737 20.9162 24.0676 21.3322 24.4836C21.7482 24.8996 22.2421 25.2296 22.7856 25.4547C23.3292 25.6799 23.9117 25.7958 24.5001 25.7958C25.6882 25.7958 26.8277 25.3238 27.6679 24.4836C28.5081 23.6434 28.9801 22.5039 28.9801 21.3158C28.9801 20.1276 28.5081 18.9881 27.6679 18.1479C26.8277 17.3078 25.6882 16.8358 24.5001 16.8358Z" fill="#EB5757"/>
</svg>
